<svg xmlns="http://www.w3.org/2000/svg" viewBox="0 0 512 512">
<defs>
    <linearGradient id="grad1" x1="0%" y1="0%" x2="100%" y2="0%" gradientTransform="rotate(45)">
        <stop offset="0%" style="stop-color:#f64f59;stop-opacity:1" />
        <stop offset="60%" style="stop-color:#c471ed;stop-opacity:1" />
        <stop offset="100%" style="stop-color:#12c2e9;stop-opacity:1" />
    </linearGradient>
</defs>
<path fill="url(#grad1) #FFF" d="M256 512A256 256 0 1 0 256 0a256 256 0 1 0 0 512zM216 336h24V272H216c-13.3 0-24-10.7-24-24s10.7-24 24-24h48c13.3 0 24 10.7 24 24v88h8c13.3 0 24 10.7 24 24s-10.7 24-24 24H216c-13.3 0-24-10.7-24-24s10.7-24 24-24zm40-208a32 32 0 1 1 0 64 32 32 0 1 1 0-64z"/></svg>