<svg xmlns="http://www.w3.org/2000/svg" viewBox="0 0 512 512">
<defs>
    <linearGradient id="grad1" x1="0%" y1="0%" x2="100%" y2="0%" gradientTransform="rotate(45)">
        <stop offset="0%" style="stop-color:#f64f59;stop-opacity:1" />
        <stop offset="60%" style="stop-color:#c471ed;stop-opacity:1" />
        <stop offset="100%" style="stop-color:#12c2e9;stop-opacity:1" />
    </linearGradient>
</defs>
<path fill="url(#grad1) #FFF" d="M288 109.3V352c0 17.7-14.3 32-32 32s-32-14.3-32-32V109.3l-73.4 73.4c-12.5 12.5-32.8 12.5-45.3 0s-12.5-32.8 0-45.3l128-128c12.5-12.5 32.8-12.5 45.3 0l128 128c12.5 12.5 12.5 32.8 0 45.3s-32.8 12.5-45.3 0L288 109.3zM64 352H192c0 35.3 28.7 64 64 64s64-28.7 64-64H448c35.3 0 64 28.7 64 64v32c0 35.3-28.7 64-64 64H64c-35.3 0-64-28.7-64-64V416c0-35.3 28.7-64 64-64zM432 456a24 24 0 1 0 0-48 24 24 0 1 0 0 48z"/></svg>